<?xml version="1.0" encoding="UTF-8"?>
<!DOCTYPE svg PUBLIC "-//W3C//DTD SVG 1.1//EN" "http://www.w3.org/Graphics/SVG/1.1/DTD/svg11.dtd">
<svg xmlns="http://www.w3.org/2000/svg" version="1.1" width="341px" height="115px" style="shape-rendering:geometricPrecision; text-rendering:geometricPrecision; image-rendering:optimizeQuality; fill-rule:evenodd; clip-rule:evenodd" xmlns:xlink="http://www.w3.org/1999/xlink">
<g><path style="opacity:0.971" fill="#f8f8f8" d="M 29.5,15.5 C 42.9898,14.5043 56.6565,14.171 70.5,14.5C 70.6646,17.5184 70.498,20.5184 70,23.5C 62.635,32.3591 55.135,41.0258 47.5,49.5C 46.9569,49.56 46.6236,49.8933 46.5,50.5C 54.3235,51.8199 61.9902,51.8199 69.5,50.5C 70.1174,50.6107 70.6174,50.944 71,51.5C 71.4983,54.8168 71.665,58.1501 71.5,61.5C 57.1667,61.5 42.8333,61.5 28.5,61.5C 28.1842,58.0217 28.6842,54.6883 30,51.5C 37.0315,42.9746 44.1982,34.6412 51.5,26.5C 52.0431,26.44 52.3764,26.1067 52.5,25.5C 45.1968,24.5027 37.8635,24.1694 30.5,24.5C 30.81,21.2869 30.4767,18.2869 29.5,15.5 Z"/></g>
<g><path style="opacity:0.976" fill="#f5f5f5" d="M 97.5,14.5 C 102.214,14.1734 106.88,14.5067 111.5,15.5C 118.167,30.5 124.833,45.5 131.5,60.5C 126.869,61.6616 122.202,61.8283 117.5,61C 116.438,58.2095 115.105,55.5428 113.5,53C 107.141,52.1694 100.807,52.3361 94.5,53.5C 92.9239,55.9793 91.9239,58.646 91.5,61.5C 86.8333,61.5 82.1667,61.5 77.5,61.5C 83.8875,45.7239 90.5541,30.0572 97.5,14.5 Z M 103.5,29.5 C 106.049,33.0975 108.049,37.0975 109.5,41.5C 105.878,42.6586 102.211,42.8253 98.5,42C 100.586,37.9961 102.252,33.8295 103.5,29.5 Z"/></g>
<g><path style="opacity:0.989" fill="#f3f3f3" d="M 141.5,14.5 C 146.099,14.2 150.599,14.5333 155,15.5C 155.499,21.1569 155.666,26.8236 155.5,32.5C 161.093,32.8066 166.593,32.4732 172,31.5C 172.499,25.8431 172.666,20.1764 172.5,14.5C 177.167,14.5 181.833,14.5 186.5,14.5C 186.5,30.1667 186.5,45.8333 186.5,61.5C 181.833,61.5 177.167,61.5 172.5,61.5C 172.5,55.5 172.5,49.5 172.5,43.5C 166.833,43.5 161.167,43.5 155.5,43.5C 155.5,49.5 155.5,55.5 155.5,61.5C 150.833,61.5 146.167,61.5 141.5,61.5C 141.5,45.8333 141.5,30.1667 141.5,14.5 Z"/></g>
<g><path style="opacity:0.984" fill="#f9f9f9" d="M 242.5,25.5 C 242.347,30.4158 242.347,35.0825 242.5,39.5C 240.876,42.7901 238.543,45.4567 235.5,47.5C 238.715,51.9394 241.382,56.606 243.5,61.5C 238.786,61.8266 234.12,61.4933 229.5,60.5C 226.719,57.0657 224.386,53.3991 222.5,49.5C 220.052,48.5269 217.385,48.1936 214.5,48.5C 214.5,52.8333 214.5,57.1667 214.5,61.5C 210.167,61.5 205.833,61.5 201.5,61.5C 201.5,45.8333 201.5,30.1667 201.5,14.5C 210.839,14.3335 220.173,14.5002 229.5,15C 235.893,16.1679 240.227,19.6679 242.5,25.5 Z M 224.5,25.5 C 227.912,26.5815 229.912,28.9148 230.5,32.5C 229.802,34.6669 228.469,36.5002 226.5,38C 222.848,38.4986 219.182,38.6653 215.5,38.5C 215.5,34.1667 215.5,29.8333 215.5,25.5C 218.5,25.5 221.5,25.5 224.5,25.5 Z"/></g>
<g><path style="opacity:0.974" fill="#f5f5f5" d="M 271.5,14.5 C 276.43,14.1975 281.263,14.5308 286,15.5C 292.794,30.7499 299.294,46.0833 305.5,61.5C 300.786,61.8266 296.12,61.4933 291.5,60.5C 290.305,58.2487 289.305,55.9154 288.5,53.5C 281.833,52.1667 275.167,52.1667 268.5,53.5C 267.695,55.9154 266.695,58.2487 265.5,60.5C 260.833,61.8333 256.167,61.8333 251.5,60.5C 258.179,45.1452 264.846,29.8119 271.5,14.5 Z M 277.5,29.5 C 280.622,33.1449 282.622,37.4783 283.5,42.5C 280.167,42.5 276.833,42.5 273.5,42.5C 274.833,38.1667 276.167,33.8333 277.5,29.5 Z"/></g>
<g><path style="opacity:0.502" fill="#a3a5a5" d="M 29.5,15.5 C 30.4767,18.2869 30.81,21.2869 30.5,24.5C 37.8635,24.1694 45.1968,24.5027 52.5,25.5C 52.3764,26.1067 52.0431,26.44 51.5,26.5C 44.3524,25.5084 37.0191,25.175 29.5,25.5C 29.5,22.1667 29.5,18.8333 29.5,15.5 Z"/></g>
<g><path style="opacity:1" fill="#a6a7a7" d="M 242.5,25.5 C 245.018,30.0495 245.018,34.7162 242.5,39.5C 242.347,35.0825 242.347,30.4158 242.5,25.5 Z"/></g>
<g><path style="opacity:1" fill="#a8aaa9" d="M 224.5,25.5 C 221.5,25.5 218.5,25.5 215.5,25.5C 215.5,29.8333 215.5,34.1667 215.5,38.5C 219.182,38.6653 222.848,38.4986 226.5,38C 228.469,36.5002 229.802,34.6669 230.5,32.5C 230.919,35.3245 229.919,37.4912 227.5,39C 223.179,39.499 218.846,39.6657 214.5,39.5C 214.5,34.5 214.5,29.5 214.5,24.5C 218.042,24.1872 221.375,24.5206 224.5,25.5 Z"/></g>
<g><path style="opacity:0.502" fill="#878a8a" d="M 47.5,49.5 C 54.6476,50.4916 61.9809,50.825 69.5,50.5C 61.9902,51.8199 54.3235,51.8199 46.5,50.5C 46.6236,49.8933 46.9569,49.56 47.5,49.5 Z"/></g>
<g><path style="opacity:0.502" fill="#737775" d="M 222.5,49.5 C 220.167,49.5 217.833,49.5 215.5,49.5C 215.817,53.7016 215.483,57.7016 214.5,61.5C 214.5,57.1667 214.5,52.8333 214.5,48.5C 217.385,48.1936 220.052,48.5269 222.5,49.5 Z"/></g>
<g><path style="opacity:0.502" fill="#b0b0b0" d="M 174.5,78.5 C 125.67,79.4988 76.6695,79.8322 27.5,79.5C 27.8128,83.0419 27.4794,86.3752 26.5,89.5C 26.5,85.8333 26.5,82.1667 26.5,78.5C 75.8333,78.5 125.167,78.5 174.5,78.5 Z"/></g>
<g><path style="opacity:0.502" fill="#abacac" d="M 294.5,78.5 C 296.604,78.2011 298.604,78.5344 300.5,79.5C 298.955,80.4519 297.288,80.7852 295.5,80.5C 295.5,81.5 295.5,82.5 295.5,83.5C 302.049,83.9071 302.049,84.9071 295.5,86.5C 296.714,88.0691 298.381,88.9024 300.5,89C 298.19,89.4966 295.857,89.6633 293.5,89.5C 293.244,85.7307 293.577,82.0641 294.5,78.5 Z"/></g>
<g><path style="opacity:0.999" fill="#f2f2f2" d="M 174.5,78.5 C 175.822,82.5664 175.822,86.7331 174.5,91C 125.5,91.6667 76.5,91.6667 27.5,91C 26.944,90.6174 26.6107,90.1174 26.5,89.5C 27.4794,86.3752 27.8128,83.0419 27.5,79.5C 76.6695,79.8322 125.67,79.4988 174.5,78.5 Z"/></g>
<g><path style="opacity:0.502" fill="#848686" d="M 243.5,79.5 C 244.777,80.6936 245.444,82.3603 245.5,84.5C 245.167,86.1667 244.833,87.8333 244.5,89.5C 243.513,86.2317 243.18,82.8984 243.5,79.5 Z"/></g>
<g><path style="opacity:0.502" fill="#bdbebe" d="M 263.5,79.5 C 265.197,81.3052 266.03,83.6385 266,86.5C 268.19,89.2486 269.857,88.9153 271,85.5C 271.192,83.4233 271.692,81.4233 272.5,79.5C 273.754,82.8149 273.421,85.9816 271.5,89C 264.161,90.1474 261.494,86.9807 263.5,79.5 Z"/></g>
<g><path style="opacity:0.502" fill="#b4b7b4" d="M 213.5,78.5 C 215.927,78.523 218.26,79.023 220.5,80C 222.032,82.33 221.698,84.33 219.5,86C 220.517,87.0495 220.684,88.2161 220,89.5C 218.736,87.393 216.903,86.393 214.5,86.5C 214.719,87.675 214.386,88.675 213.5,89.5C 212.242,85.7897 212.242,82.123 213.5,78.5 Z M 214.5,80.5 C 217.95,79.7564 219.616,81.0897 219.5,84.5C 217.833,84.5 216.167,84.5 214.5,84.5C 214.5,83.1667 214.5,81.8333 214.5,80.5 Z"/></g>
<g><path style="opacity:0.502" fill="#acaeae" d="M 250.5,78.5 C 253.247,78.1866 255.914,78.52 258.5,79.5C 257.675,80.3857 256.675,80.719 255.5,80.5C 254.833,92.5 254.167,92.5 253.5,80.5C 251.821,80.7148 250.821,80.0481 250.5,78.5 Z"/></g>
<g><path style="opacity:0.502" fill="#b3b5b4" d="M 280.5,78.5 C 284.158,78.4258 286.825,79.9258 288.5,83C 286.692,85.0406 286.026,87.2072 286.5,89.5C 285.305,87.703 283.638,86.703 281.5,86.5C 281.719,87.675 281.386,88.675 280.5,89.5C 279.242,85.7897 279.242,82.123 280.5,78.5 Z M 281.5,80.5 C 287.963,82.2621 287.963,83.5954 281.5,84.5C 281.5,83.1667 281.5,81.8333 281.5,80.5 Z"/></g>
<g><path style="opacity:0.502" fill="#c0c3c3" d="M 227.5,79.5 C 230.428,80.5914 232.594,82.5914 234,85.5C 234.192,83.4233 234.692,81.4233 235.5,79.5C 236.833,82.8333 236.833,86.1667 235.5,89.5C 233.142,87.9757 231.309,85.9757 230,83.5C 229.808,85.5767 229.308,87.5767 228.5,89.5C 227.513,86.2317 227.18,82.8984 227.5,79.5 Z"/></g>
<g><path style="opacity:0.751" fill="#b0b1b1" d="M 185.5,78.5 C 187.604,78.2011 189.604,78.5344 191.5,79.5C 189.955,80.4519 188.288,80.7852 186.5,80.5C 186.5,81.5 186.5,82.5 186.5,83.5C 191.833,84.1667 191.833,84.8333 186.5,85.5C 186.762,86.9778 186.429,88.3112 185.5,89.5C 184.242,85.7897 184.242,82.123 185.5,78.5 Z"/></g>
<g><path style="opacity:0.502" fill="#9d9f9f" d="M 197.5,79.5 C 198.847,82.4602 200.347,85.4602 202,88.5C 202.414,88.0426 202.914,87.7093 203.5,87.5C 204.167,84.8333 204.833,82.1667 205.5,79.5C 206.787,82.7087 206.787,85.8753 205.5,89C 198.161,90.1474 195.494,86.9807 197.5,79.5 Z"/></g>
</svg>
